HIERARCHY
ROOT Hips
{
	OFFSET 0.000000 0.000000 0.000000
	CHANNELS 6 Xposition Yposition Zposition Zrotation Yrotation Xrotation 
	JOINT LHipJoint
	{
		OFFSET 0.000000 0.000000 0.000000
		CHANNELS 3 Zrotation Yrotation Xrotation
		JOINT LeftUpLeg
		{
			OFFSET 8.178360 -10.767780 5.035740
			CHANNELS 3 Zrotation Yrotation Xrotation
			JOINT LeftLeg
			{
				OFFSET 14.688660 -40.356780 0.000000
				CHANNELS 3 Zrotation Yrotation Xrotation
				JOINT LeftFoot
				{
					OFFSET 15.373200 -42.237540 0.000000
					CHANNELS 3 Zrotation Yrotation Xrotation
					JOINT LeftToeBase
					{
						OFFSET 0.945840 -2.598660 13.935300
						CHANNELS 3 Zrotation Yrotation Xrotation
						End Site
						{
							OFFSET 0.000000 0.000000 0.000000
						}
					}
				}
			}
		}
	}
	JOINT RHipJoint
	{
		OFFSET 0.000000 0.000000 0.000000
		CHANNELS 3 Zrotation Yrotation Xrotation
		JOINT RightUpLeg
		{
			OFFSET -7.833120 -10.767780 5.035740
			CHANNELS 3 Zrotation Yrotation Xrotation
			JOINT RightLeg
			{
				OFFSET -15.255180 -41.913300 0.000000
				CHANNELS 3 Zrotation Yrotation Xrotation
				JOINT RightFoot
				{
					OFFSET -15.409560 -42.337380 0.000000
					CHANNELS 3 Zrotation Yrotation Xrotation
					JOINT RightToeBase
					{
						OFFSET -0.988380 -2.715540 14.178900
						CHANNELS 3 Zrotation Yrotation Xrotation
						End Site
						{
							OFFSET 0.000000 0.000000 0.000000
						}
					}
				}
			}
		}
	}
	JOINT LowerBack
	{
		OFFSET 0.000000 0.000000 0.000000
		CHANNELS 3 Zrotation Yrotation Xrotation
		JOINT Spine
		{
			OFFSET 0.169620 12.213540 -1.160280
			CHANNELS 3 Zrotation Yrotation Xrotation
			JOINT Spine1
			{
				OFFSET 0.340320 12.293100 -0.256500
				CHANNELS 3 Zrotation Yrotation Xrotation
				JOINT Neck
				{
					OFFSET 0.000000 0.000000 0.000000
					CHANNELS 3 Zrotation Yrotation Xrotation
					JOINT Neck1
					{
						OFFSET -0.325020 10.477440 1.032120
						CHANNELS 3 Zrotation Yrotation Xrotation
						JOINT Head
						{
							OFFSET 0.624420 10.568160 -0.743820
							CHANNELS 3 Zrotation Yrotation Xrotation
							End Site
							{
								OFFSET 0.000000 0.000000 0.000000
							}
						}
					}
				}
				JOINT LeftShoulder
				{
					OFFSET 0.000000 0.000000 0.000000
					CHANNELS 3 Zrotation Yrotation Xrotation
					JOINT LeftArm
					{
						OFFSET 20.174460 7.205340 -1.867260
						CHANNELS 3 Zrotation Yrotation Xrotation
						JOINT LeftForeArm
						{
							OFFSET 29.898000 -0.000000 -0.000000
							CHANNELS 3 Zrotation Yrotation Xrotation
							JOINT LeftHand
							{
								OFFSET 20.901360 -0.000000 -0.000000
								CHANNELS 3 Zrotation Yrotation Xrotation
								JOINT LeftFingerBase
								{
									OFFSET 0.000000 0.000000 0.000000
									CHANNELS 3 Zrotation Yrotation Xrotation
									JOINT LeftHandIndex1
									{
										OFFSET 4.291560 -0.000000 -0.000000
										CHANNELS 3 Zrotation Yrotation Xrotation
										End Site
										{
											OFFSET 0.000000 0.000000 0.000000
										}
									}
								}
								JOINT LThumb
								{
									OFFSET 0.000000 0.000000 0.000000
									CHANNELS 3 Zrotation Yrotation Xrotation
									End Site
									{
										OFFSET 0.000000 0.000000 0.000000
									}
								}
							}
						}
					}
				}
				JOINT RightShoulder
				{
					OFFSET 0.000000 0.000000 0.000000
					CHANNELS 3 Zrotation Yrotation Xrotation
					JOINT RightArm
					{
						OFFSET -18.819600 8.244300 -2.427900
						CHANNELS 3 Zrotation Yrotation Xrotation
						JOINT RightForeArm
						{
							OFFSET -31.451400 -0.000000 -0.000000
							CHANNELS 3 Zrotation Yrotation Xrotation
							JOINT RightHand
							{
								OFFSET -20.665020 -0.000000 -0.000000
								CHANNELS 3 Zrotation Yrotation Xrotation
								JOINT RightFingerBase
								{
									OFFSET 0.000000 0.000000 0.000000
									CHANNELS 3 Zrotation Yrotation Xrotation
									JOINT RightHandIndex1
									{
										OFFSET -3.735180 -0.000000 -0.000000
										CHANNELS 3 Zrotation Yrotation Xrotation
										End Site
										{
											OFFSET 0.000000 0.000000 0.000000
										}
									}
								}
								JOINT RThumb
								{
									OFFSET 0.000000 0.000000 0.000000
									CHANNELS 3 Zrotation Yrotation Xrotation
									End Site
									{
										OFFSET 0.000000 0.000000 0.000000
									}
								}
							}
						}
					}
				}
			}
		}
	}
}
MOTION
Frames:	12
Frame Time:	0.0333333
-217.500498 115.809426 53.431236 -177.745274 1.066759 -174.899398 -6.911714 -0.101225 3.510568 1.037155 21.442015 -26.972945 3.862539 9.841649 22.240831 -3.932103 24.610310 37.341153 0.929100 -6.140300 -17.191900 1.792030 2.661872 -4.471253 0.717194 -19.743747 -36.791237 -12.770904 -18.237090 47.991755 1.162968 -20.494653 42.326448 -0.412100 -4.120900 11.417000 0.637434 1.423119 7.348304 0.968246 2.522478 -5.203261 -0.661797 1.174903 -11.205172 -2.383702 8.657915 -15.570535 5.890939 11.207547 0.342569 -0.167800 5.347400 4.348100 9.839874 -10.436081 1.277491 19.565579 -17.160198 -13.952666 66.383241 -55.208044 -69.980078 -3.765468 -6.825521 -22.715121 23.108720 -7.468108 -1.240900 -7.125000 0.000000 0.000000 2.229500 27.456100 -0.951100 -3.294488 10.829639 3.028003 -18.634776 11.566762 0.679278 -61.534116 50.193072 -58.926381 3.154351 3.931361 -8.643139 -37.015605 31.507685 -20.758400 7.125000 0.000000 0.000000 -6.534200 2.555300 -6.863100 
-212.917530 118.165506 52.123614 -177.966841 0.568778 -173.900096 -7.508474 0.814788 3.498408 2.772354 19.969719 -25.952423 3.611994 9.355127 18.307500 -4.157458 30.052510 41.747376 0.473300 -4.412000 -12.238800 3.576044 1.886063 -3.636418 -0.435130 -18.150351 -33.118430 -9.464103 -16.258034 36.221366 -1.309406 -24.119801 50.769182 -0.303700 -3.543500 9.795700 -0.251224 1.134780 5.399092 0.948651 2.228491 -5.219179 -0.590267 0.959872 -9.375469 -2.243685 9.438512 -17.907389 5.592865 12.425202 0.406733 -0.278900 5.891500 4.582900 11.520859 -9.270849 3.779357 25.551409 -15.673584 -18.570914 51.641042 -45.029709 -53.828310 -2.635538 -8.217336 -36.004059 19.058615 -3.490042 0.849300 -7.125000 0.000000 0.000000 -0.268800 31.900700 0.086100 -4.527299 9.837016 4.214571 -23.494526 10.606232 -5.431993 -51.784052 43.673054 -48.609873 3.476501 4.006527 -16.688674 -32.583118 28.280986 -17.005500 7.125000 0.000000 0.000000 -4.835600 -1.176700 -4.752300 
-207.801270 119.775612 50.974326 -178.247964 -0.435035 -172.970729 -7.632395 1.099452 2.481193 3.162448 20.353419 -26.842445 4.130758 9.793051 16.992342 -4.903663 35.889007 43.811222 0.004900 -0.452100 -1.242300 5.133916 1.706792 -2.209670 -0.608442 -17.276660 -30.953526 -6.473899 -14.252422 29.711015 -3.556422 -21.737899 54.848640 -0.024200 -1.003400 2.758200 -1.773589 0.625141 3.603357 0.964142 1.678445 -5.208463 -0.303966 0.671637 -8.182541 -1.913764 9.960214 -19.548668 5.816648 13.244639 0.666925 -0.246800 6.300300 4.877900 13.147314 -8.775733 4.969004 29.218577 -14.265842 -23.410117 41.047934 -38.035842 -40.553685 -0.485165 -9.026956 -48.251051 14.119503 1.403218 2.702800 -7.125000 0.000000 0.000000 -4.661700 37.400800 0.874100 -5.686672 9.546131 5.053155 -26.427672 9.060492 -9.943428 -43.541638 38.144443 -39.485565 3.888651 4.360798 -26.530942 -28.906077 24.307952 -13.705200 7.125000 0.000000 0.000000 -3.694000 -5.284400 -3.345200 
-202.603878 120.535764 50.163762 -178.506544 -1.674727 -172.729202 -7.343617 0.703896 1.243965 2.532707 21.567235 -28.643220 4.803595 10.520171 18.000060 -4.829055 37.464942 44.671288 0.191000 2.814300 7.762200 6.013045 2.008104 -1.099951 1.109895 -18.616095 -31.036548 -5.811783 -13.714450 29.608422 -2.731407 -20.423854 52.320939 -0.052800 1.482300 -4.077000 -3.270442 0.110074 3.061794 0.988990 1.120338 -5.168977 -0.144630 0.411924 -7.839224 -1.736731 10.296960 -20.232948 6.219139 13.742262 0.806496 -0.159700 6.571000 4.972900 14.614743 -8.901906 5.305501 31.309154 -13.301871 -29.692564 32.378742 -33.272489 -30.683794 1.901881 -8.869402 -56.329893 8.735812 5.244091 3.110900 -7.125000 0.000000 0.000000 -10.771300 41.755500 0.873300 -6.755866 9.769988 5.629700 -27.927876 7.327834 -13.173018 -36.660893 33.567107 -32.401190 4.196934 5.262475 -35.836562 -24.828535 20.228496 -10.380000 7.125000 0.000000 0.000000 -2.279500 -9.791000 -1.860200 
-197.890932 120.631080 49.696644 -178.623614 -1.983971 -173.248930 -6.642755 -0.791106 1.042683 1.887075 21.460709 -29.539213 3.616504 10.175565 21.039881 2.305804 20.934834 50.988233 0.077300 -1.793700 -4.935900 6.467233 2.742048 -0.694925 2.797936 -19.918019 -31.494211 -5.970313 -13.718650 31.338438 -2.013188 -19.122668 49.913661 -0.067900 1.680600 -4.623800 -3.891685 1.069616 3.902620 0.952818 0.740840 -5.112212 -0.349492 -0.459352 -8.236553 -1.615910 10.770030 -20.256849 6.303626 14.358532 0.871143 -0.144600 6.879000 5.023600 15.710861 -9.233084 5.350043 31.988224 -12.321548 -35.844505 26.159894 -29.822229 -24.482508 3.310302 -8.679866 -60.102656 6.140470 7.228184 3.013800 -7.125000 0.000000 0.000000 -14.192700 44.138800 0.308100 -7.596261 10.248299 6.002231 -28.653205 5.835139 -15.780876 -31.361475 29.960244 -27.396850 4.206927 6.235928 -42.538180 -21.470661 16.730265 -7.755600 7.125000 0.000000 0.000000 -0.972800 -13.778200 -0.713200 
-193.927896 120.150570 49.558794 -178.353236 -0.945454 -174.180586 -6.034744 -2.361565 1.100489 0.488386 22.174633 -30.799062 2.283451 10.255490 25.793623 6.569742 4.364637 52.434957 0.160700 -2.582500 -7.118400 6.614170 3.694611 -0.591701 3.753675 -19.771017 -31.530649 -5.877114 -13.850625 33.868068 -2.560430 -14.672778 48.803938 -0.054800 1.510000 -4.153300 -3.302238 1.373015 5.478472 0.868247 1.261128 -5.041116 -0.885930 -0.176626 -8.884369 -1.228706 11.467855 -20.154295 5.947528 15.221732 0.965562 -0.242600 7.281900 5.231500 16.420344 -9.549096 5.355165 31.764311 -11.208416 -40.941635 22.087272 -27.174769 -20.852522 3.678555 -8.695629 -61.117271 5.471564 7.574084 2.941100 -7.125000 0.000000 0.000000 -15.005100 44.626300 0.141700 -8.070789 10.617771 6.186715 -28.888795 4.599458 -18.453853 -27.951534 27.551122 -24.804150 3.650890 7.328001 -48.439380 -18.254967 13.432737 -5.316200 7.125000 0.000000 0.000000 0.554200 -17.909000 0.356900 
-190.533600 119.413260 49.543824 -177.719475 0.778743 -174.809142 -6.089497 -2.832493 0.328116 -2.046986 24.794162 -33.251998 4.380781 12.134128 30.462767 4.674312 7.857177 49.644241 0.000800 -0.187500 -0.515200 6.914757 4.421282 -0.383186 4.738187 -18.807296 -31.557919 -5.456695 -14.080481 36.079781 -3.146056 -10.173704 47.067514 -0.074100 1.756100 -4.832200 -2.283806 1.059432 6.721935 0.783961 2.379412 -4.975667 -1.252484 0.882840 -9.372935 -0.650820 12.344225 -19.931572 5.362024 16.262899 0.984158 -0.447900 7.746700 5.418500 16.842876 -9.841269 5.317875 31.105073 -10.101113 -44.872817 19.283881 -25.135471 -18.754577 4.206858 -8.369677 -61.907127 4.221455 7.938866 2.592100 -7.125000 0.000000 0.000000 -16.720700 45.035500 -0.015100 -8.184295 10.685451 6.257681 -28.773023 3.562893 -21.280203 -25.952557 26.099070 -23.889160 2.915791 8.147772 -53.992198 -15.598628 11.240886 -3.786300 7.125000 0.000000 0.000000 2.053100 -20.651500 1.197800 
-187.340958 118.719276 49.394946 -177.326213 2.535720 -174.681305 -6.282882 -3.555316 -0.376704 -3.908466 25.614546 -34.974856 6.080678 13.484096 34.259859 2.347291 11.502656 45.066011 0.044500 1.360700 3.741900 7.406916 5.120582 -0.250056 5.923585 -18.081339 -31.680526 -5.226251 -14.217318 37.475233 -2.955453 -8.365588 44.012242 -0.108300 2.121600 -5.841800 -2.042336 1.622217 6.850755 0.737577 3.142681 -4.922184 -0.936587 1.233942 -9.424959 0.037648 13.334592 -19.757579 4.956999 17.435375 1.059737 -0.652900 8.281400 5.604900 17.049219 -9.935539 5.263030 30.259141 -9.121855 -47.457110 17.109023 -23.416118 -17.295946 4.815260 -7.946406 -62.644068 2.926235 8.361747 2.176900 -7.125000 0.000000 0.000000 -18.637900 45.512100 -0.244100 -8.000625 10.656611 6.260609 -28.302179 2.700319 -24.344670 -24.670252 25.144386 -23.823157 2.167548 8.622231 -58.968226 -13.265067 9.694373 -2.782800 7.125000 0.000000 0.000000 3.583800 -22.499800 1.943300 
-184.282230 117.569202 49.211406 -177.433233 3.603138 -174.359345 -6.467932 -4.831296 -0.859674 -4.714168 23.736811 -35.424784 5.754013 14.185144 38.104520 3.596596 4.669755 41.653058 0.000200 -0.089100 -0.244900 7.918174 5.764951 -0.054953 6.617728 -17.309514 -31.254495 -5.076151 -14.147076 38.369764 -2.310094 -7.670277 38.753157 -0.062000 1.606800 -4.420200 -2.572923 1.915025 6.652929 0.710110 3.467126 -4.870225 -0.284695 1.454749 -9.260240 0.632024 14.175465 -19.678928 4.923366 18.435627 1.196815 -0.701900 8.765500 5.753200 17.127370 -9.894091 5.206757 29.471797 -8.379711 -49.356239 14.973432 -21.740353 -15.669164 5.331053 -7.409196 -62.079662 1.543697 8.629941 1.608300 -7.125000 0.000000 0.000000 -20.788900 45.765900 -0.410800 -7.623594 10.644755 6.259817 -27.438536 1.804361 -27.129451 -23.783500 24.363045 -24.429614 1.267409 9.293214 -64.134785 -11.845577 7.549699 -1.740600 7.125000 0.000000 0.000000 4.351600 -25.085500 2.102000 
-181.501572 115.520334 49.040472 -177.430054 4.159561 -174.130492 -6.694213 -6.088770 -1.511164 -5.354777 20.930057 -35.772100 4.903217 15.035421 42.592099 7.431102 -8.706800 34.972260 0.211100 -2.958100 -8.162000 8.873517 6.168182 0.687321 6.842283 -15.764439 -29.360460 -4.425429 -13.631940 37.632308 -1.367816 -7.714809 30.025100 -0.005500 0.478800 -1.315600 -2.579455 2.075902 6.630632 0.706682 3.674226 -4.829167 -0.007041 1.568690 -9.134653 1.069663 14.722200 -19.565617 4.997519 19.062718 1.432840 -0.687800 9.085000 5.900400 17.026647 -9.854491 5.121685 28.657069 -7.979685 -51.074342 13.077041 -20.269162 -14.198665 5.895904 -6.917048 -61.965126 0.411535 9.073901 1.113700 -7.125000 0.000000 0.000000 -22.734700 46.223900 -0.723900 -7.160583 10.602393 6.256972 -26.468623 0.704797 -29.298323 -22.728680 23.397588 -24.937156 0.360628 9.674885 -69.149712 -10.357681 5.685612 -0.919400 7.125000 0.000000 0.000000 5.356000 -27.228200 2.321300 
-178.984008 113.078394 48.855354 -176.863709 4.710312 -173.643355 -7.293684 -6.922456 -2.134720 -6.490675 19.152745 -36.504789 5.175633 15.777640 44.899743 9.437463 -14.090100 27.647516 0.239700 -3.150600 -8.698400 9.975833 6.578918 1.232799 7.715315 -14.035009 -27.866461 -4.144665 -13.535709 37.331049 0.895036 -10.282490 20.696759 -0.004300 -0.422200 1.160200 -1.612967 2.222236 6.602264 0.715039 4.027303 -4.842874 -0.150061 1.665700 -9.307553 1.367426 15.154573 -19.142347 4.937499 19.532913 1.678397 -0.702100 9.327700 5.987500 16.733847 -10.007459 5.032731 27.669253 -7.754063 -52.591754 11.331337 -18.851289 -12.833728 6.273784 -6.296079 -61.351867 -0.728413 9.152795 0.526100 -7.125000 0.000000 0.000000 -24.530600 46.127500 -0.726200 -6.643576 10.525126 6.151264 -25.567712 -0.451252 -31.208106 -21.231376 22.222097 -24.965757 -0.710293 9.475479 -74.157749 -7.924823 3.706446 -0.146200 7.125000 0.000000 0.000000 7.568700 -29.437200 2.894600 
-177.026514 111.146112 48.723018 -176.019216 5.643297 -173.138342 -8.175868 -7.411567 -2.087529 -7.204658 17.447892 -35.906381 5.670040 15.682602 43.706020 5.604050 -3.508281 21.516762 -0.000000 -0.037700 -0.103500 9.892894 7.300599 0.570048 9.567686 -14.500602 -29.751743 -5.119719 -14.611257 41.390553 0.499829 -8.531017 16.738228 -0.007500 -0.557400 1.531800 0.106034 2.447961 6.981748 0.686956 4.575403 -4.889879 -0.687793 1.736579 -9.600662 1.971491 15.806874 -18.469211 4.348512 20.216049 1.662418 -0.992900 9.614800 6.006000 16.125328 -10.173179 4.919552 26.386961 -7.437352 -53.295969 10.044754 -17.671864 -12.025157 6.527678 -5.741449 -61.163308 -1.555603 9.069430 0.080100 -7.125000 0.000000 0.000000 -25.756800 45.841800 -0.573400 -5.921158 10.270817 6.014109 -24.634189 -1.510040 -33.211216 -19.733263 21.055472 -24.863845 -1.513153 9.099474 -78.161304 -6.067338 2.127341 0.306100 7.125000 0.000000 0.000000 9.447200 -31.103700 3.247700 
